<?xml version="1.0" standalone="no"?>
<!DOCTYPE svg PUBLIC "-//W3C//DTD SVG 20010904//EN"
 "http://www.w3.org/TR/2001/REC-SVG-20010904/DTD/svg10.dtd">
<svg version="1.0" xmlns="http://www.w3.org/2000/svg"
 width="992.000000pt" height="589.000000pt" viewBox="0 0 992.000000 589.000000"
 preserveAspectRatio="xMidYMid meet">

<g transform="translate(0.000000,589.000000) scale(0.100000,-0.100000)"
fill="#000000" stroke="none">
<path d="M4730 4924 c-208 -24 -331 -58 -442 -125 -133 -79 -257 -228 -308
-370 -19 -54 -19 -54 -57 -51 -64 5 -313 57 -608 127 -746 176 -1128 215
-1370 138 -309 -97 -521 -423 -484 -747 17 -160 81 -287 205 -413 103 -105
185 -148 270 -141 29 3 54 3 54 1 0 -2 -43 -106 -96 -231 -252 -597 -309 -721
-389 -846 -88 -138 -147 -258 -152 -312 -8 -74 16 -132 73 -183 102 -89 209
-72 459 75 153 90 204 129 247 192 44 63 209 400 418 853 l45 96 67 -1 c37 -1
68 -2 68 -4 0 -2 -43 -77 -96 -167 -118 -203 -145 -275 -152 -410 -4 -89 -1
-109 22 -179 32 -93 81 -171 144 -226 25 -22 43 -42 41 -43 -2 -2 -23 -9 -46
-15 -104 -30 -192 -123 -201 -210 -13 -137 75 -222 238 -230 76 -3 104 1 265
43 238 61 404 78 690 72 345 -8 766 -66 1940 -266 590 -101 907 -149 1165
-176 634 -67 1080 143 1218 575 26 81 52 240 52 320 0 142 -59 287 -143 350
-32 24 -47 42 -47 58 0 26 -24 77 -49 106 -28 32 -88 56 -139 56 -71 0 -129
-34 -274 -160 -88 -76 -128 -105 -128 -93 0 26 27 139 50 208 18 55 28 68 113
142 241 208 480 551 590 844 58 153 71 330 32 438 -8 24 -13 46 -10 49 9 9 90
-52 150 -113 57 -58 91 -106 156 -222 40 -71 102 -108 180 -106 94 2 151 46
193 148 51 125 69 298 45 417 -19 94 -100 246 -173 325 -274 296 -699 296
-1445 -2 -78 -31 -303 -127 -500 -212 -366 -159 -551 -236 -556 -231 -2 2 -31
58 -64 125 -34 67 -88 158 -121 203 -188 253 -479 437 -788 499 -96 19 -284
33 -352 25z m370 -187 c131 -35 248 -87 362 -163 220 -147 374 -353 464 -621
15 -46 30 -83 34 -83 25 0 347 130 630 255 805 355 1112 455 1405 458 138 1
201 -11 300 -58 115 -55 202 -155 260 -300 39 -98 39 -224 1 -341 -14 -45 -33
-87 -41 -94 -28 -23 -59 -3 -90 57 -103 198 -278 352 -476 416 -276 91 -595
42 -1031 -156 -181 -83 -293 -128 -638 -257 -327 -122 -320 -119 -324 -144 -3
-11 -7 -79 -10 -151 -8 -230 -68 -449 -221 -810 -92 -217 -116 -261 -212 -387
-194 -254 -396 -358 -583 -302 -100 30 -176 100 -217 200 -10 24 -20 44 -23
44 -3 0 -16 -16 -29 -36 -43 -62 -179 -181 -254 -220 -60 -32 -84 -38 -149
-42 -69 -4 -84 -2 -134 23 -68 33 -94 71 -94 138 0 26 -5 47 -10 47 -6 0 -32
-11 -58 -24 -26 -13 -99 -44 -163 -70 -96 -38 -127 -46 -180 -46 -116 0 -172
57 -187 188 l-7 61 -93 -74 c-163 -131 -313 -205 -416 -205 -84 0 -195 81
-244 177 -37 72 -46 151 -28 240 20 98 55 168 204 413 l119 195 -60 73 c-33
40 -63 75 -67 77 -3 2 -35 -14 -69 -36 -72 -45 -118 -50 -132 -13 -12 33 14
60 91 99 l69 35 -11 37 c-17 61 -5 192 21 244 75 144 208 220 301 172 111 -57
83 -242 -59 -384 -70 -70 -74 -60 68 -153 108 -70 155 -118 172 -175 11 -37 9
-43 -17 -90 -16 -28 -78 -114 -137 -191 -140 -181 -213 -297 -226 -362 -25
-112 17 -208 89 -208 76 0 262 121 380 246 59 63 69 80 109 186 145 394 400
638 665 638 199 0 315 -109 304 -286 -4 -71 -30 -117 -68 -122 -33 -5 -40 13
-40 109 0 72 -3 91 -21 112 -56 72 -191 45 -293 -60 -99 -101 -238 -335 -286
-481 -48 -147 -48 -287 1 -313 44 -23 195 39 274 112 35 32 51 60 81 137 70
183 102 231 179 269 11 6 61 14 110 17 163 12 167 -15 42 -271 -48 -98 -93
-200 -101 -226 -14 -45 -13 -50 5 -68 19 -19 20 -19 57 0 61 31 152 104 228
183 66 68 72 78 89 148 44 181 154 448 233 562 32 47 98 89 179 113 59 18 87
19 130 3 29 -11 33 -16 33 -48 0 -58 -15 -96 -95 -231 -166 -281 -256 -551
-216 -648 19 -43 59 -57 126 -42 137 31 263 129 363 284 204 315 339 715 358
1056 l6 122 -53 -21 c-222 -88 -487 -163 -674 -192 -177 -26 -513 -5 -647 41
-208 71 -323 202 -362 411 l-12 65 -105 16 c-57 10 -194 31 -304 49 -267 42
-332 54 -520 102 -88 22 -166 41 -173 42 -9 0 -48 -77 -103 -204 -372 -846
-813 -1790 -878 -1876 -40 -53 -156 -131 -309 -206 -101 -50 -146 -54 -175
-16 l-20 27 31 64 c18 35 62 113 98 173 112 184 159 287 554 1224 82 192 108
254 267 640 109 263 105 240 43 240 -212 0 -472 -187 -542 -390 -19 -55 -23
-85 -22 -190 0 -69 3 -136 7 -150 20 -78 -66 -47 -166 60 -114 120 -165 258
-154 410 17 215 154 398 362 481 57 23 71 24 280 24 302 0 421 -20 1066 -170
366 -86 558 -123 681 -132 l88 -6 0 31 c0 89 82 254 170 342 97 97 227 157
391 180 117 16 342 5 449 -23z m2602 -589 c22 -6 62 -31 88 -55 127 -114 122
-314 -14 -597 -60 -121 -164 -286 -253 -399 -72 -91 -231 -250 -304 -305 l-56
-42 -37 -125 c-63 -212 -70 -330 -26 -403 52 -85 151 -47 355 137 119 107 175
142 199 122 38 -32 8 -89 -97 -187 -80 -74 -238 -189 -307 -224 -96 -49 -249
-36 -352 29 -60 38 -95 93 -115 184 -9 40 -17 74 -19 76 -1 2 -29 -17 -61 -41
-207 -158 -401 -279 -488 -304 -65 -18 -177 -23 -238 -11 -49 10 -121 75 -152
137 -40 79 -48 146 -30 242 32 173 106 400 171 532 44 87 131 210 179 255 82
76 175 103 279 81 169 -35 220 -246 112 -470 -38 -81 -143 -188 -276 -282
-160 -114 -145 -93 -148 -206 -4 -93 -2 -101 20 -127 21 -24 32 -28 71 -28 31
1 62 10 90 26 63 37 292 201 376 270 116 95 123 110 222 462 78 282 171 529
284 760 120 245 227 387 349 467 65 42 106 48 178 26z m115 -1911 c23 -44 28
-67 31 -157 9 -235 -67 -430 -220 -564 -70 -62 -210 -130 -333 -163 -95 -25
-112 -27 -330 -27 -272 0 -336 8 -1190 148 -115 19 -316 53 -445 75 -667 116
-1155 186 -1505 217 -316 28 -629 5 -902 -67 -184 -48 -278 -55 -312 -25 -26
24 -26 37 -1 69 25 31 97 59 250 97 240 59 427 80 725 80 318 0 557 -29 1234
-150 286 -50 632 -103 791 -120 47 -5 144 -16 215 -24 401 -48 841 -61 1065
-31 309 40 509 143 653 334 49 66 124 208 153 289 37 107 73 112 121 19z"/>
<path d="M4730 4629 c-142 -13 -257 -69 -372 -180 -76 -74 -115 -146 -125
-228 l-6 -51 131 0 c159 0 254 17 418 75 111 39 125 42 139 29 58 -58 -207
-187 -509 -248 -70 -14 -138 -26 -152 -26 -23 0 -24 -2 -18 -42 30 -193 152
-307 371 -345 69 -12 130 -14 278 -9 326 10 517 51 832 178 93 37 91 34 67
130 -75 296 -365 589 -669 676 -135 39 -264 52 -385 41z"/>
<path d="M3011 3659 c-41 -38 -61 -97 -61 -181 0 -96 9 -99 79 -23 64 71 94
152 70 193 -19 35 -57 40 -88 11z"/>
<path d="M7635 3858 c-47 -56 -147 -260 -234 -478 -76 -192 -143 -381 -138
-387 2 -2 24 12 48 31 107 81 363 472 420 640 12 35 20 87 21 129 0 62 -2 73
-22 89 -34 27 -55 22 -95 -24z"/>
<path d="M6396 3019 c-42 -33 -241 -457 -224 -475 12 -12 75 31 133 90 136
139 215 312 175 387 -14 25 -51 24 -84 -2z"/>
</g>
</svg>
